<svg width="100" height="100" viewBox="0 0 100 100" fill="none" xmlns="http://www.w3.org/2000/svg">
<path d="M37.5007 20.833H29.1674C26.9572 20.833 24.8376 21.711 23.2748 23.2738C21.712 24.8366 20.834 26.9562 20.834 29.1663V79.1663C20.834 81.3765 21.712 83.4961 23.2748 85.0589C24.8376 86.6217 26.9572 87.4997 29.1674 87.4997H70.834C73.0442 87.4997 75.1638 86.6217 76.7266 85.0589C78.2894 83.4961 79.1674 81.3765 79.1674 79.1663V29.1663C79.1674 26.9562 78.2894 24.8366 76.7266 23.2738C75.1638 21.711 73.0442 20.833 70.834 20.833H62.5007" stroke="#FFC200" stroke-width="6" stroke-linecap="round" stroke-linejoin="round"/>
<path d="M54.1667 12.5H45.8333C41.231 12.5 37.5 16.231 37.5 20.8333C37.5 25.4357 41.231 29.1667 45.8333 29.1667H54.1667C58.769 29.1667 62.5 25.4357 62.5 20.8333C62.5 16.231 58.769 12.5 54.1667 12.5Z" stroke="#FFC200" stroke-width="6" stroke-linecap="round" stroke-linejoin="round"/>
</svg>
