<svg width="248" height="28" viewBox="0 0 248 28" fill="none" xmlns="http://www.w3.org/2000/svg">
<rect width="248" height="28" fill="none"/>
<path d="M25.2608 23.9806H19.3557C18.007 23.9806 16.959 23.609 16.2118 22.8659C15.4827 22.1228 15.1182 21.0897 15.1182 19.7666V14.3292C15.1182 12.988 15.4827 11.9548 16.2118 11.2299C16.959 10.4867 18.007 10.1152 19.3557 10.1152H21.5975C22.9462 10.1152 23.9942 10.4867 24.7414 11.2299C25.4887 11.9548 25.8623 12.988 25.8623 14.3292V17.7819C25.8623 18.1082 25.6983 18.2713 25.3702 18.2713H18.0435C17.843 18.2713 17.7427 18.3619 17.7427 18.5432V19.7122C17.7427 21.0353 18.408 21.6969 19.7384 21.6969H25.2608C25.5889 21.6969 25.7529 21.86 25.7529 22.1863V23.5456C25.7529 23.8356 25.5889 23.9806 25.2608 23.9806ZM18.0435 16.4226H22.9371C23.1193 16.4226 23.2104 16.332 23.2104 16.1507V14.4107C23.2104 13.722 23.0555 13.2236 22.7457 12.9155C22.4359 12.5892 21.9346 12.4261 21.2421 12.4261H19.7384C19.0459 12.4261 18.5447 12.5892 18.2348 12.9155C17.925 13.2236 17.7701 13.722 17.7701 14.4107V16.1507C17.7701 16.332 17.8612 16.4226 18.0435 16.4226Z" fill="black"/>
<path d="M38.1418 23.9806H36.9116C35.5993 23.9806 34.5878 23.6181 33.877 22.8931C33.1844 22.15 32.8381 21.1078 32.8381 19.7666V10.5774C32.8381 10.2692 32.993 10.1152 33.3029 10.1152H35.0252C35.335 10.1152 35.49 10.2692 35.49 10.5774V19.6579C35.49 20.9991 36.1461 21.6697 37.4583 21.6697H38.7706C40.2651 21.6697 41.0124 20.8994 41.0124 19.3588V10.5774C41.0124 10.2692 41.1673 10.1152 41.4771 10.1152H43.1994C43.5275 10.1152 43.6915 10.2692 43.6915 10.5774V23.5184C43.6915 23.8265 43.5275 23.9806 43.1994 23.9806H41.4771C41.1673 23.9806 41.0124 23.8265 41.0124 23.5184V22.5397H40.903C40.4656 23.5003 39.5452 23.9806 38.1418 23.9806Z" fill="black"/>
<path d="M70.2888 22.1319V23.5456C70.2888 23.8356 70.1247 23.9806 69.7967 23.9806H65.7779C64.4292 23.9806 63.3812 23.609 62.634 22.8659C61.9049 22.1228 61.5404 21.0897 61.5404 19.7666V14.3292C61.5404 12.988 61.9049 11.9548 62.634 11.2299C63.3812 10.4867 64.4292 10.1152 65.7779 10.1152H69.7967C70.1247 10.1152 70.2888 10.2692 70.2888 10.5774V11.9911C70.2888 12.2811 70.1247 12.4261 69.7967 12.4261H66.1606C64.8484 12.4261 64.1923 13.0967 64.1923 14.4379V19.6579C64.1923 20.9991 64.8484 21.6697 66.1606 21.6697H69.7967C70.1247 21.6697 70.2888 21.8238 70.2888 22.1319Z" fill="black"/>
<path d="M83.3641 23.9806H80.9583C79.6096 23.9806 78.5616 23.609 77.8144 22.8659C77.0853 22.1228 76.7208 21.0897 76.7208 19.7666V14.3292C76.7208 12.988 77.0853 11.9548 77.8144 11.2299C78.5616 10.4867 79.6096 10.1152 80.9583 10.1152H83.3641C84.6946 10.1152 85.7334 10.4867 86.4807 11.2299C87.2462 11.9548 87.6289 12.988 87.6289 14.3292V19.7666C87.6289 21.0897 87.2462 22.1228 86.4807 22.8659C85.7334 23.609 84.6946 23.9806 83.3641 23.9806ZM81.341 21.6697H83.0087C84.3209 21.6697 84.9771 21.0081 84.9771 19.685V14.4107C84.9771 13.0876 84.3209 12.4261 83.0087 12.4261H81.341C80.6485 12.4261 80.1472 12.5892 79.8374 12.9155C79.5276 13.2236 79.3727 13.722 79.3727 14.4107V19.685C79.3727 20.3738 79.5276 20.8813 79.8374 21.2075C80.1472 21.5156 80.6485 21.6697 81.341 21.6697Z" fill="black"/>
<path d="M95.2811 12.4261H93.9689C93.7866 12.4261 93.659 12.3989 93.5862 12.3445C93.5315 12.272 93.5041 12.1542 93.5041 11.9911V10.5774C93.5041 10.2692 93.6591 10.1152 93.9689 10.1152H95.2811C95.4634 10.1152 95.5545 10.0246 95.5545 9.84331V7.39648C95.5545 7.08836 95.7186 6.9343 96.0466 6.9343H97.769C98.0788 6.9343 98.2337 7.08836 98.2337 7.39648V9.84331C98.2337 10.0246 98.334 10.1152 98.5344 10.1152H101.077C101.405 10.1152 101.569 10.2692 101.569 10.5774V11.9911C101.569 12.2811 101.405 12.4261 101.077 12.4261H98.5344C98.334 12.4261 98.2337 12.5167 98.2337 12.698V19.685C98.2337 21.0081 98.9172 21.6697 100.284 21.6697H101.35C101.678 21.6697 101.842 21.8238 101.842 22.1319V23.5456C101.842 23.8356 101.678 23.9806 101.35 23.9806H99.874C98.5253 23.9806 97.4682 23.6181 96.7028 22.8931C95.9373 22.1681 95.5545 21.1441 95.5545 19.821V12.698C95.5545 12.5167 95.4634 12.4261 95.2811 12.4261Z" fill="black"/>
<path d="M114.926 23.9806H112.52C111.172 23.9806 110.124 23.609 109.377 22.8659C108.648 22.1228 108.283 21.0897 108.283 19.7666V14.3292C108.283 12.988 108.648 11.9548 109.377 11.2299C110.124 10.4867 111.172 10.1152 112.52 10.1152H114.926C116.257 10.1152 117.296 10.4867 118.043 11.2299C118.808 11.9548 119.191 12.988 119.191 14.3292V19.7666C119.191 21.0897 118.808 22.1228 118.043 22.8659C117.296 23.609 116.257 23.9806 114.926 23.9806ZM112.903 21.6697H114.571C115.883 21.6697 116.539 21.0081 116.539 19.685V14.4107C116.539 13.0876 115.883 12.4261 114.571 12.4261H112.903C112.211 12.4261 111.709 12.5892 111.4 12.9155C111.09 13.2236 110.935 13.722 110.935 14.4107V19.685C110.935 20.3738 111.09 20.8813 111.4 21.2075C111.709 21.5156 112.211 21.6697 112.903 21.6697Z" fill="black"/>
<path d="M142.079 23.9806H141.012C139.664 23.9806 138.616 23.609 137.868 22.8659C137.139 22.1228 136.775 21.0897 136.775 19.7666V14.3292C136.775 12.988 137.139 11.9548 137.868 11.2299C138.616 10.4867 139.664 10.1152 141.012 10.1152H147.136C147.464 10.1152 147.628 10.2692 147.628 10.5774V23.5184C147.628 23.8265 147.464 23.9806 147.136 23.9806H145.414C145.104 23.9806 144.949 23.8265 144.949 23.5184V22.5397H144.84C144.402 23.5003 143.482 23.9806 142.079 23.9806ZM144.949 19.3588V12.698C144.949 12.5167 144.849 12.4261 144.648 12.4261H141.395C140.083 12.4261 139.427 13.0967 139.427 14.4379V19.6579C139.427 20.9991 140.083 21.6697 141.395 21.6697H142.707C144.202 21.6697 144.949 20.8994 144.949 19.3588Z" fill="black"/>
<path d="M163.04 19.3044V12.698C163.04 12.5167 162.939 12.4261 162.739 12.4261H159.486C158.173 12.4261 157.517 13.0967 157.517 14.4379V19.6579C157.517 20.9991 158.173 21.6697 159.486 21.6697H160.743C162.274 21.6697 163.04 20.8813 163.04 19.3044ZM160.114 23.9806H159.103C157.754 23.9806 156.706 23.609 155.959 22.8659C155.23 22.1228 154.865 21.0897 154.865 19.7666V14.3292C154.865 12.988 155.23 11.9548 155.959 11.2299C156.706 10.4867 157.754 10.1152 159.103 10.1152H165.227C165.555 10.1152 165.719 10.2692 165.719 10.5774V27.3518C165.719 27.6599 165.555 27.814 165.227 27.814H163.504C163.195 27.814 163.04 27.6599 163.04 27.3518V22.4853H162.93C162.438 23.4822 161.5 23.9806 160.114 23.9806Z" fill="black"/>
<path d="M178.396 23.9806H177.166C175.854 23.9806 174.842 23.6181 174.131 22.8931C173.439 22.15 173.093 21.1078 173.093 19.7666V10.5774C173.093 10.2692 173.247 10.1152 173.557 10.1152H175.28C175.589 10.1152 175.744 10.2692 175.744 10.5774V19.6579C175.744 20.9991 176.4 21.6697 177.713 21.6697H179.025C180.52 21.6697 181.267 20.8994 181.267 19.3588V10.5774C181.267 10.2692 181.422 10.1152 181.732 10.1152H183.454C183.782 10.1152 183.946 10.2692 183.946 10.5774V23.5184C183.946 23.8265 183.782 23.9806 183.454 23.9806H181.732C181.422 23.9806 181.267 23.8265 181.267 23.5184V22.5397H181.157C180.72 23.5003 179.8 23.9806 178.396 23.9806Z" fill="black"/>
<path d="M191.59 7.80428V5.33026C191.59 5.04026 191.736 4.89526 192.027 4.89526H193.804C194.096 4.89526 194.242 5.04026 194.242 5.33026V7.80428C194.242 8.1124 194.096 8.26646 193.804 8.26646H192.027C191.736 8.26646 191.59 8.1124 191.59 7.80428ZM191.59 23.5184V10.5774C191.59 10.2692 191.736 10.1152 192.027 10.1152H193.777C194.087 10.1152 194.242 10.2692 194.242 10.5774V23.5184C194.242 23.6997 194.205 23.8265 194.132 23.899C194.078 23.9534 193.968 23.9806 193.804 23.9806H192.055C191.745 23.9806 191.59 23.8265 191.59 23.5184Z" fill="black"/>
<path fill-rule="evenodd" clip-rule="evenodd" d="M234.967 12.329C234.967 18.764 229.579 23.9805 222.933 23.9805H222.932V23.9807H210.898V12.3292H210.898L210.898 12.329C210.898 5.89406 216.286 0.67749 222.933 0.67749C229.579 0.67749 234.967 5.89406 234.967 12.329ZM222.951 17.4268C225.782 17.4268 228.077 15.1445 228.077 12.3292C228.077 9.51386 225.782 7.2316 222.951 7.2316C220.12 7.2316 217.825 9.51386 217.825 12.3292C217.825 15.1445 220.12 17.4268 222.951 17.4268Z" fill="#FFC200"/>
</svg>
