<svg width="231" height="242" viewBox="0 0 231 242" fill="none" xmlns="http://www.w3.org/2000/svg">
<g filter="url(#filter0_dd)">
<rect x="18" y="17" width="195" height="206" rx="48" fill="white"/>
</g>
<path d="M79.8952 93.0425H68.6941C66.1358 93.0425 64.148 92.3136 62.7305 90.8558C61.3477 89.398 60.6562 87.3713 60.6562 84.7758V74.1091C60.6562 71.478 61.3477 69.4513 62.7305 68.0291C64.148 66.5713 66.1358 65.8424 68.6941 65.8424H72.9464C75.5047 65.8424 77.4925 66.5713 78.9099 68.0291C80.3274 69.4513 81.0361 71.478 81.0361 74.1091V80.8824C81.0361 81.5224 80.7249 81.8424 80.1027 81.8424H66.205C65.8247 81.8424 65.6345 82.0202 65.6345 82.3758V84.6691C65.6345 87.2647 66.8964 88.5624 69.4201 88.5624H79.8952C80.5175 88.5624 80.8287 88.8824 80.8287 89.5224V92.1891C80.8287 92.758 80.5175 93.0425 79.8952 93.0425ZM66.205 78.2157H75.4874C75.8331 78.2157 76.0059 78.038 76.0059 77.6824V74.2691C76.0059 72.918 75.7121 71.9402 75.1244 71.3357C74.5367 70.6957 73.5859 70.3757 72.2722 70.3757H69.4201C68.1064 70.3757 67.1557 70.6957 66.568 71.3357C65.9802 71.9402 65.6864 72.918 65.6864 74.2691V77.6824C65.6864 78.038 65.8592 78.2157 66.205 78.2157Z" fill="black"/>
<path d="M104.328 93.0425H101.995C99.5057 93.0425 97.587 92.3313 96.2387 90.9091C94.925 89.4513 94.2681 87.4069 94.2681 84.7758V66.749C94.2681 66.1446 94.562 65.8424 95.1497 65.8424H98.4167C99.0044 65.8424 99.2983 66.1446 99.2983 66.749V84.5624C99.2983 87.1936 100.543 88.5091 103.032 88.5091H105.521C108.356 88.5091 109.773 86.998 109.773 83.9758V66.749C109.773 66.1446 110.067 65.8424 110.655 65.8424H113.922C114.544 65.8424 114.855 66.1446 114.855 66.749V92.1358C114.855 92.7402 114.544 93.0425 113.922 93.0425H110.655C110.067 93.0425 109.773 92.7402 109.773 92.1358V90.2158H109.566C108.736 92.1002 106.99 93.0425 104.328 93.0425Z" fill="black"/>
<path d="M77.2505 131.321V134.094C77.2505 134.663 76.9394 134.947 76.3171 134.947H68.6941C66.1358 134.947 64.148 134.218 62.7305 132.761C61.3477 131.303 60.6562 129.276 60.6562 126.681V116.014C60.6562 113.383 61.3477 111.356 62.7305 109.934C64.148 108.476 66.1358 107.747 68.6941 107.747H76.3171C76.9394 107.747 77.2505 108.049 77.2505 108.654V111.427C77.2505 111.996 76.9394 112.281 76.3171 112.281H69.4201C66.931 112.281 65.6864 113.596 65.6864 116.227V126.467C65.6864 129.098 66.931 130.414 69.4201 130.414H76.3171C76.9394 130.414 77.2505 130.716 77.2505 131.321Z" fill="black"/>
<path d="M102.052 134.947H97.489C94.9307 134.947 92.9428 134.218 91.5254 132.761C90.1425 131.303 89.4511 129.276 89.4511 126.681V116.014C89.4511 113.383 90.1425 111.356 91.5254 109.934C92.9428 108.476 94.9307 107.747 97.489 107.747H102.052C104.576 107.747 106.547 108.476 107.964 109.934C109.416 111.356 110.142 113.383 110.142 116.014V126.681C110.142 129.276 109.416 131.303 107.964 132.761C106.547 134.218 104.576 134.947 102.052 134.947ZM98.215 130.414H101.378C103.867 130.414 105.112 129.116 105.112 126.521V116.174C105.112 113.578 103.867 112.281 101.378 112.281H98.215C96.9012 112.281 95.9505 112.601 95.3628 113.241C94.7751 113.845 94.4812 114.823 94.4812 116.174V126.521C94.4812 127.872 94.7751 128.867 95.3628 129.507C95.9505 130.112 96.9012 130.414 98.215 130.414Z" fill="black"/>
<path d="M124.657 112.281H122.168C121.822 112.281 121.58 112.227 121.442 112.121C121.338 111.978 121.286 111.747 121.286 111.427V108.654C121.286 108.049 121.58 107.747 122.168 107.747H124.657C125.003 107.747 125.176 107.569 125.176 107.214V102.414C125.176 101.809 125.487 101.507 126.109 101.507H129.376C129.964 101.507 130.258 101.809 130.258 102.414V107.214C130.258 107.569 130.448 107.747 130.828 107.747H135.651C136.273 107.747 136.584 108.049 136.584 108.654V111.427C136.584 111.996 136.273 112.281 135.651 112.281H130.828C130.448 112.281 130.258 112.458 130.258 112.814V126.521C130.258 129.116 131.554 130.414 134.147 130.414H136.169C136.792 130.414 137.103 130.716 137.103 131.321V134.094C137.103 134.663 136.792 134.947 136.169 134.947H133.369C130.811 134.947 128.806 134.236 127.354 132.814C125.902 131.392 125.176 129.383 125.176 126.787V112.814C125.176 112.458 125.003 112.281 124.657 112.281Z" fill="black"/>
<path d="M161.921 134.947H157.358C154.799 134.947 152.811 134.218 151.394 132.761C150.011 131.303 149.32 129.276 149.32 126.681V116.014C149.32 113.383 150.011 111.356 151.394 109.934C152.811 108.476 154.799 107.747 157.358 107.747H161.921C164.445 107.747 166.415 108.476 167.833 109.934C169.285 111.356 170.011 113.383 170.011 116.014V126.681C170.011 129.276 169.285 131.303 167.833 132.761C166.415 134.218 164.445 134.947 161.921 134.947ZM158.084 130.414H161.247C163.736 130.414 164.981 129.116 164.981 126.521V116.174C164.981 113.578 163.736 112.281 161.247 112.281H158.084C156.77 112.281 155.819 112.601 155.231 113.241C154.644 113.845 154.35 114.823 154.35 116.174V126.521C154.35 127.872 154.644 128.867 155.231 129.507C155.819 130.112 156.77 130.414 158.084 130.414Z" fill="black"/>
<path d="M70.7165 176.852H68.6941C66.1358 176.852 64.148 176.123 62.7305 174.666C61.3477 173.208 60.6562 171.181 60.6562 168.586V157.919C60.6562 155.288 61.3477 153.261 62.7305 151.839C64.148 150.381 66.1358 149.652 68.6941 149.652H80.3101C80.9324 149.652 81.2435 149.954 81.2435 150.559V175.946C81.2435 176.55 80.9324 176.852 80.3101 176.852H77.0431C76.4554 176.852 76.1615 176.55 76.1615 175.946V174.026H75.9541C75.1244 175.91 73.3785 176.852 70.7165 176.852ZM76.1615 167.786V154.719C76.1615 154.363 75.9714 154.185 75.5911 154.185H69.4201C66.931 154.185 65.6864 155.501 65.6864 158.132V168.372C65.6864 171.003 66.931 172.319 69.4201 172.319H71.9092C74.7441 172.319 76.1615 170.808 76.1615 167.786Z" fill="black"/>
<path d="M110.476 167.679V154.719C110.476 154.363 110.286 154.185 109.906 154.185H103.735C101.246 154.185 100.001 155.501 100.001 158.132V168.372C100.001 171.003 101.246 172.319 103.735 172.319H106.12C109.024 172.319 110.476 170.772 110.476 167.679ZM104.928 176.852H103.009C100.451 176.852 98.4628 176.123 97.0453 174.666C95.6625 173.208 94.9711 171.181 94.9711 168.586V157.919C94.9711 155.288 95.6625 153.261 97.0453 151.839C98.4628 150.381 100.451 149.652 103.009 149.652H114.625C115.247 149.652 115.558 149.954 115.558 150.559V183.466C115.558 184.07 115.247 184.372 114.625 184.372H111.358C110.77 184.372 110.476 184.07 110.476 183.466V173.919H110.269C109.335 175.874 107.555 176.852 104.928 176.852Z" fill="black"/>
<path d="M139.605 176.852H137.272C134.783 176.852 132.864 176.141 131.516 174.719C130.202 173.261 129.545 171.217 129.545 168.586V150.559C129.545 149.954 129.839 149.652 130.427 149.652H133.694C134.281 149.652 134.575 149.954 134.575 150.559V168.372C134.575 171.003 135.82 172.319 138.309 172.319H140.798C143.633 172.319 145.05 170.808 145.05 167.786V150.559C145.05 149.954 145.344 149.652 145.932 149.652H149.199C149.821 149.652 150.132 149.954 150.132 150.559V175.946C150.132 176.55 149.821 176.852 149.199 176.852H145.932C145.344 176.852 145.05 176.55 145.05 175.946V174.026H144.843C144.013 175.91 142.267 176.852 139.605 176.852Z" fill="black"/>
<path d="M164.632 145.119V140.265C164.632 139.697 164.908 139.412 165.461 139.412H168.832C169.385 139.412 169.662 139.697 169.662 140.265V145.119C169.662 145.723 169.385 146.025 168.832 146.025H165.461C164.908 146.025 164.632 145.723 164.632 145.119ZM164.632 175.946V150.559C164.632 149.954 164.908 149.652 165.461 149.652H168.78C169.368 149.652 169.662 149.954 169.662 150.559V175.946C169.662 176.301 169.593 176.55 169.454 176.692C169.351 176.799 169.143 176.852 168.832 176.852H165.513C164.926 176.852 164.632 176.55 164.632 175.946Z" fill="black"/>
<path fill-rule="evenodd" clip-rule="evenodd" d="M152.725 94.2496C166.552 94.2496 177.762 82.721 177.762 68.4998C177.762 54.2786 166.552 42.75 152.725 42.75C138.897 42.75 127.688 54.2786 127.688 68.4998C127.688 68.4999 127.688 68.4999 127.688 68.5H127.688V94.2498H152.724V94.2496C152.725 94.2496 152.725 94.2496 152.725 94.2496Z" fill="#FFC200"/>
<ellipse cx="152.764" cy="68.5" rx="10.6641" ry="11.2656" fill="white"/>
<defs>
<filter id="filter0_dd" x="0" y="0" width="231" height="242" filterUnits="userSpaceOnUse" color-interpolation-filters="sRGB">
<feFlood flood-opacity="0" result="BackgroundImageFix"/>
<feColorMatrix in="SourceAlpha" type="matrix" values="0 0 0 0 0 0 0 0 0 0 0 0 0 0 0 0 0 0 127 0"/>
<feOffset dy="1"/>
<feGaussianBlur stdDeviation="9"/>
<feColorMatrix type="matrix" values="0 0 0 0 0 0 0 0 0 0 0 0 0 0 0 0 0 0 0.1 0"/>
<feBlend mode="normal" in2="BackgroundImageFix" result="effect1_dropShadow"/>
<feColorMatrix in="SourceAlpha" type="matrix" values="0 0 0 0 0 0 0 0 0 0 0 0 0 0 0 0 0 0 127 0"/>
<feMorphology radius="10" operator="erode" in="SourceAlpha" result="effect2_dropShadow"/>
<feOffset dy="6"/>
<feGaussianBlur stdDeviation="10"/>
<feColorMatrix type="matrix" values="0 0 0 0 0 0 0 0 0 0 0 0 0 0 0 0 0 0 0.25 0"/>
<feBlend mode="normal" in2="effect1_dropShadow" result="effect2_dropShadow"/>
<feBlend mode="normal" in="SourceGraphic" in2="effect2_dropShadow" result="shape"/>
</filter>
</defs>
</svg>
