<svg width="199" height="199" viewBox="0 0 199 199" fill="none" xmlns="http://www.w3.org/2000/svg">
<path d="M155.485 110.942C167.022 110.942 176.374 101.589 176.374 90.0529C176.374 78.5163 167.022 69.1641 155.485 69.1641C143.948 69.1641 134.596 78.5163 134.596 90.0529C134.596 101.589 143.948 110.942 155.485 110.942Z" stroke="white" stroke-width="6" stroke-linecap="round" stroke-linejoin="round"/>
<path d="M136.501 127.5C139.001 126 142.501 124.667 145.408 124.667H166.297C171.837 124.667 177.15 126.868 181.068 130.785C184.985 134.703 187.186 140.016 187.186 145.556V156" stroke="white" stroke-width="6" stroke-linecap="round" stroke-linejoin="round"/>
<path d="M41.9655 95.7943C53.5021 95.7943 62.8544 86.442 62.8544 74.9054C62.8544 63.3689 53.5021 54.0166 41.9655 54.0166C30.4289 54.0166 21.0767 63.3689 21.0767 74.9054C21.0767 86.442 30.4289 95.7943 41.9655 95.7943Z" stroke="white" stroke-width="6" stroke-linecap="round" stroke-linejoin="round"/>
<path d="M11 140.853V130.408C11 124.868 13.2008 119.555 17.1182 115.638C21.0356 111.72 26.3488 109.52 31.8888 109.52H52.7777C58.3178 109.52 63.6309 111.72 67.5483 115.638" stroke="white" stroke-width="6" stroke-linecap="round" stroke-linejoin="round"/>
<path d="M99.4837 94.5826C113.452 94.5826 124.775 83.2593 124.775 69.2913C124.775 55.3233 113.452 44 99.4837 44C85.5157 44 74.1924 55.3233 74.1924 69.2913C74.1924 83.2593 85.5157 94.5826 99.4837 94.5826Z" stroke="#616161" stroke-width="6" stroke-linecap="round" stroke-linejoin="round"/>
<path d="M61.9922 149.137V136.491C61.9922 129.783 64.6568 123.35 69.3998 118.607C74.1429 113.864 80.5758 111.2 87.2835 111.2H112.575C119.283 111.2 125.715 113.864 130.458 118.607C135.202 123.35 137.866 129.783 137.866 136.491V149.137" stroke="#616161" stroke-width="6" stroke-linecap="round" stroke-linejoin="round"/>
</svg>
