<svg width="56" height="56" viewBox="0 0 56 56" fill="none" xmlns="http://www.w3.org/2000/svg">
<rect width="56" height="56" rx="28" fill="#FFC200"/>
<rect width="56" height="56" rx="28" fill="white" fill-opacity="0.04"/>
<path fill-rule="evenodd" clip-rule="evenodd" d="M31.5 30H30.71L30.43 29.73C31.41 28.59 32 27.11 32 25.5C32 21.91 29.09 19 25.5 19C21.91 19 19 21.91 19 25.5C19 29.09 21.91 32 25.5 32C27.11 32 28.59 31.41 29.73 30.43L30 30.71V31.5L35 36.49L36.49 35L31.5 30ZM25.5 30C23.01 30 21 27.99 21 25.5C21 23.01 23.01 21 25.5 21C27.99 21 30 23.01 30 25.5C30 27.99 27.99 30 25.5 30Z" fill="white"/>
</svg>
