<svg width="44" height="44" viewBox="0 0 44 44" fill="none" xmlns="http://www.w3.org/2000/svg">
<circle cx="22" cy="22" r="22" fill="#EB4132"/>
<path d="M14.8594 22.5001C14.8594 21.2615 15.2006 20.1012 15.7935 19.1077V14.8934H11.5792C9.90664 17.0657 9 19.7131 9 22.5001C9 25.2871 9.90664 27.9345 11.5792 30.1068H15.7935V25.8926C15.2006 24.899 14.8594 23.7387 14.8594 22.5001Z" fill="white"/>
<path d="M21.5 29.1407L18.5703 32.0704L21.5 35.0001C24.2871 35.0001 26.9344 34.0934 29.1067 32.4208V28.2111H24.8969C23.8947 28.8061 22.7295 29.1407 21.5 29.1407Z" fill="white"/>
<path d="M15.7931 25.8923L11.5789 30.1066C11.91 30.5367 12.2706 30.9485 12.6608 31.3388C15.0217 33.6997 18.1607 34.9999 21.4996 34.9999V29.1405C19.0766 29.1405 16.9529 27.8358 15.7931 25.8923Z" fill="white"/>
<path d="M34 22.5C34 21.7396 33.9312 20.9776 33.7953 20.2355L33.6854 19.635H21.5V25.4944H27.4303C26.8544 26.6399 25.9689 27.5746 24.8969 28.2111L29.1066 32.4208C29.5367 32.0897 29.9486 31.7291 30.3388 31.3389C32.6998 28.9779 34 25.8389 34 22.5Z" fill="white"/>
<path d="M26.1957 17.8043L26.7135 18.3222L30.8567 14.1791L30.3389 13.6612C27.9779 11.3002 24.8389 10 21.5 10L18.5703 12.9297L21.5 15.8594C23.2737 15.8594 24.9414 16.5501 26.1957 17.8043Z" fill="white"/>
<path d="M21.5001 15.8594V10C18.1613 10 15.0223 11.3002 12.6613 13.6611C12.2711 14.0513 11.9105 14.4632 11.5793 14.8933L15.7936 19.1076C16.9534 17.1641 19.0771 15.8594 21.5001 15.8594Z" fill="white"/>
</svg>
