<svg width="199" height="199" viewBox="0 0 199 199" fill="none" xmlns="http://www.w3.org/2000/svg">
<g clip-path="url(#clip0)">
<path d="M198.189 84.8701L164.882 41.603C163.649 40.0028 161.4 39.608 159.695 40.6921L138.191 54.3685H110.144C109.781 54.3685 109.42 54.4459 109.071 54.5476L87.3248 60.8074L64.7606 54.6357L42.8355 40.6921C41.1594 39.6263 38.9519 39.9876 37.7054 41.5332L0.865047 87.1657C-0.458866 88.8054 -0.240238 91.1997 1.35696 92.5737L20.6661 109.191L37.9893 132.536C32.9229 137.933 33.0216 146.446 38.2929 151.719C40.6295 154.054 43.6007 155.373 46.657 155.68C46.5507 156.372 46.496 157.075 46.496 157.789C46.496 161.472 47.9308 164.935 50.5346 167.539C53.1399 170.144 56.603 171.579 60.2863 171.579C60.3364 171.579 60.385 171.576 60.4336 171.574C60.4321 171.668 60.4275 171.761 60.4275 171.855C60.4275 175.538 61.8622 179.002 64.466 181.607C67.0714 184.211 70.5345 185.645 74.2178 185.645C74.945 185.645 75.6646 185.586 76.3706 185.477C76.6697 188.544 77.9921 191.529 80.3363 193.873C83.0236 196.562 86.5551 197.905 90.0865 197.905C93.618 197.905 97.1494 196.562 99.8382 193.873L101.947 191.764L102.832 192.478C105.498 195.06 108.96 196.351 112.421 196.351C115.953 196.351 119.484 195.007 122.172 192.318C124.915 189.575 126.259 185.954 126.203 182.351C129.804 182.406 133.426 181.063 136.17 178.321C138.91 175.579 140.254 171.961 140.201 168.36C143.952 168.419 147.511 166.979 150.167 164.323C152.91 161.58 154.254 157.959 154.198 154.356C157.802 154.41 161.421 153.068 164.165 150.325C168.847 145.643 169.45 138.405 165.978 133.062L178.626 106.572L197.642 90.2083C199.214 88.8555 199.454 86.5113 198.189 84.8701ZM41.5875 49.1472L57.353 59.1722L23.0573 100.954L9.31411 89.1258L41.5875 49.1472ZM43.8118 137.734L48.57 132.976C48.7142 132.832 48.866 132.695 49.0209 132.567C49.9516 131.808 51.0781 131.356 52.2715 131.248C52.3049 131.245 52.3398 131.245 52.3732 131.244C52.5432 131.23 52.7133 131.221 52.8848 131.222C54.5154 131.245 56.0306 131.912 57.1542 133.097C59.3587 135.428 59.2402 139.236 56.89 141.586L52.276 146.2C49.9425 148.533 46.1453 148.533 43.8118 146.2C41.4782 143.865 41.4782 140.068 43.8118 137.734ZM56.0534 162.02C54.9223 160.89 54.2998 159.387 54.2998 157.789C54.2998 156.19 54.9223 154.687 56.0534 153.556L65.2798 144.329C67.0471 142.562 69.8255 142.078 72.0846 143.154C74.4136 144.264 75.7239 146.792 75.3823 149.335C75.2001 150.692 74.5685 151.971 73.5998 152.941L64.5192 162.02C63.3881 163.151 61.885 163.774 60.2863 163.774C58.6876 163.774 57.1845 163.151 56.0534 162.02ZM69.9849 176.087C68.8538 174.957 68.2313 173.454 68.2313 171.855C68.2313 170.256 68.8538 168.753 69.9849 167.622L79.2098 158.396C81.1 156.507 84.1319 156.1 86.4457 157.447C88.5591 158.677 89.6659 161.091 89.3031 163.496C89.1042 164.818 88.4756 166.062 87.5298 167.007L78.4506 176.087C77.3195 177.218 75.8165 177.84 74.2178 177.84C72.619 177.84 71.116 177.218 69.9849 176.087ZM85.8536 188.354C83.5201 186.02 83.5201 182.223 85.8536 179.89L90.6118 175.132C90.7561 174.987 90.9064 174.852 91.0612 174.725C91.0658 174.722 91.0688 174.719 91.0718 174.716C91.8462 174.087 92.7556 173.666 93.7257 173.483C93.7485 173.48 93.7713 173.477 93.7941 173.474C93.9611 173.443 94.1311 173.419 94.3012 173.404C94.3695 173.398 94.4378 173.398 94.5076 173.393C94.6473 173.386 94.7855 173.376 94.9267 173.378C96.5558 173.401 98.0725 174.066 99.196 175.253C99.3342 175.399 99.4632 175.551 99.5816 175.707C101.376 178.053 101.135 181.537 98.9075 183.766L94.3179 188.356C91.9843 190.689 88.1872 190.688 85.8536 188.354ZM158.646 144.806C156.313 147.141 152.515 147.14 150.182 144.806C150.097 144.721 150.007 144.642 149.916 144.568L124.826 119.213C123.309 117.681 120.839 117.669 119.307 119.186C117.775 120.701 117.763 123.171 119.278 124.703L144.64 150.329C144.643 150.332 144.646 150.336 144.649 150.339C146.983 152.672 146.983 156.471 144.649 158.804C143.518 159.935 142.015 160.558 140.416 160.558C138.816 160.558 137.313 159.935 136.184 158.804L119.217 141.662C117.702 140.13 115.232 140.118 113.7 141.633C112.168 143.15 112.156 145.62 113.671 147.152L130.378 164.032C130.463 164.138 130.554 164.24 130.651 164.337C132.985 166.67 132.985 170.469 130.651 172.803C128.316 175.136 124.517 175.135 122.184 172.801L112.924 163.444C111.407 161.912 108.937 161.899 107.405 163.415C105.873 164.93 105.861 167.401 107.376 168.933L116.378 178.027C116.463 178.133 116.554 178.236 116.653 178.334C118.986 180.667 118.986 184.466 116.653 186.799C114.319 189.134 110.522 189.133 108.189 186.799C107.92 186.531 107.604 186.324 107.303 186.093C107.048 185.899 106.982 185.764 107.109 185.454C107.238 185.14 107.431 184.856 107.56 184.54C107.703 184.188 107.818 183.825 107.93 183.461C108.529 181.533 108.705 179.459 108.436 177.458C107.92 173.618 105.808 170.153 102.608 167.961C100.878 166.778 98.8772 166.002 96.8032 165.711C97.8083 161.278 96.6013 156.471 93.4616 153.153C90.8775 150.424 87.3871 148.892 83.6324 148.84C83.4958 148.839 83.3591 148.839 83.221 148.84C83.3045 145.257 82.0018 141.697 79.5316 139.087C76.9461 136.357 73.4556 134.825 69.7025 134.773C68.5866 134.758 67.46 134.877 66.373 135.127C65.9084 131.895 64.2793 128.904 61.8121 126.765C59.3602 124.642 56.2766 123.464 52.9926 123.418C49.5356 123.368 46.1393 124.644 43.5719 126.962L28.4881 106.637L64.5738 62.6748L76.0746 65.8206L61.0545 92.3247C59.2387 95.5297 58.7802 99.2494 59.7625 102.799C60.7448 106.35 63.0495 109.305 66.2545 111.121C66.4549 111.235 66.6569 111.342 66.8618 111.446C66.877 111.453 66.8922 111.461 66.9089 111.468C67.4479 111.737 68.002 111.968 68.5638 112.162C71.1797 113.069 74.0052 113.167 76.7305 112.414C80.2801 111.432 83.2346 109.126 85.0505 105.922L94.8113 88.6976L112.239 89.9335L158.648 136.34C160.98 138.675 160.98 142.473 158.646 144.806ZM160.263 126.92L116.727 83.3852C116.645 83.3017 116.559 83.2228 116.469 83.1484C115.842 82.6261 115.065 82.3103 114.245 82.2526L92.9059 80.7389C91.4302 80.6372 89.9635 81.4221 89.2348 82.7081L78.2609 102.075C77.4729 103.466 76.19 104.466 74.6489 104.893C73.1094 105.319 71.494 105.119 70.1018 104.331C68.7111 103.543 67.7105 102.26 67.2839 100.719C66.8573 99.1781 67.0562 97.5627 67.8457 96.1719L82.4953 70.3177L88.4316 68.6096C88.4711 68.5975 88.509 68.5823 88.5485 68.5702L110.704 62.1723H137.474L170.894 104.656L160.263 126.92ZM176.006 98.5313L145.1 59.2223L160.873 49.1912L189.752 86.7026L176.006 98.5313Z" fill="white"/>
<path d="M120.559 47.0416C121.559 47.0416 122.558 46.6605 123.32 45.8983L149.974 19.2439C151.498 17.7196 151.498 15.2494 149.974 13.7251C148.45 12.2008 145.98 12.2008 144.455 13.7251L117.801 40.3795C116.277 41.9038 116.277 44.374 117.801 45.8983C118.563 46.6605 119.562 47.0416 120.559 47.0416Z" fill="#616161"/>
<path d="M75.68 45.8983C76.4421 46.6605 77.4411 47.0416 78.4401 47.0416C79.4376 47.0416 80.4366 46.6605 81.1988 45.8983C82.7231 44.374 82.7231 41.9038 81.1988 40.3795L54.5444 13.7251C53.0201 12.2008 50.5499 12.2008 49.0256 13.7251C47.5012 15.2494 47.5012 17.7196 49.0256 19.2439L75.68 45.8983Z" fill="#616161"/>
<path d="M99.5001 47.0412C101.654 47.0412 103.402 45.2937 103.402 43.1393V21.0806C103.402 18.9262 101.654 17.1787 99.5001 17.1787C97.3457 17.1787 95.5982 18.9262 95.5982 21.0806V43.1393C95.5982 45.2937 97.3457 47.0412 99.5001 47.0412Z" fill="#616161"/>
<path d="M95.8988 6.93841C96.5182 8.43996 98.0623 9.42531 99.6914 9.34028C101.301 9.25678 102.714 8.16971 103.212 6.6378C103.712 5.09374 103.168 3.33409 101.875 2.35026C100.555 1.34518 98.7151 1.28901 97.335 2.20147C95.7955 3.2187 95.1989 5.24405 95.8988 6.93841Z" fill="#616161"/>
</g>
<defs>
<clipPath id="clip0">
<rect width="199" height="199" fill="white"/>
</clipPath>
</defs>
</svg>
