<svg width="32" height="32" viewBox="0 0 32 32" fill="none" xmlns="http://www.w3.org/2000/svg">
<path d="M16 28C22.6274 28 28 22.6274 28 16C28 9.37258 22.6274 4 16 4C9.37258 4 4 9.37258 4 16C4 22.6274 9.37258 28 16 28Z" stroke="#212121" stroke-width="2" stroke-linecap="round" stroke-linejoin="round"/>
<path d="M16 22.6667V22.6801" stroke="#212121" stroke-width="2" stroke-linecap="round" stroke-linejoin="round"/>
<path d="M16 18.0001C15.9754 17.5672 16.0922 17.1381 16.3327 16.7774C16.5731 16.4167 16.9243 16.1439 17.3333 16.0001C17.8345 15.8084 18.2843 15.503 18.6474 15.108C19.0105 14.713 19.2769 14.239 19.4257 13.7235C19.5746 13.208 19.6017 12.665 19.505 12.1372C19.4082 11.6094 19.1903 11.1113 18.8684 10.6821C18.5465 10.2528 18.1293 9.90417 17.6497 9.66355C17.1701 9.42293 16.6412 9.29691 16.1047 9.29542C15.5681 9.29394 15.0385 9.41702 14.5576 9.65497C14.0767 9.89293 13.6576 10.2393 13.3333 10.6667" stroke="#212121" stroke-width="2" stroke-linecap="round" stroke-linejoin="round"/>
</svg>
