<svg width="199" height="199" viewBox="0 0 199 199" fill="none" xmlns="http://www.w3.org/2000/svg">
<path d="M41.4583 99.5H24.875L99.5 24.875L174.125 99.5H157.542" stroke="#9E9E9E" stroke-width="6" stroke-linecap="round" stroke-linejoin="round"/>
<path d="M41.459 99.5V157.542C41.459 161.94 43.2061 166.158 46.3161 169.268C49.4261 172.378 53.6441 174.125 58.0423 174.125H140.959C145.357 174.125 149.575 172.378 152.685 169.268C155.795 166.158 157.542 161.94 157.542 157.542V99.5" stroke="#9E9E9E" stroke-width="6" stroke-linecap="round" stroke-linejoin="round"/>
<path d="M100 130C106.075 130 111 125.075 111 119C111 112.925 106.075 108 100 108C93.9249 108 89 112.925 89 119C89 125.075 93.9249 130 100 130Z" stroke="#FFCC00" stroke-width="6" stroke-linecap="round" stroke-linejoin="round"/>
<path d="M120.507 138.759L105.126 153.908C104.453 154.571 103.654 155.097 102.775 155.456C101.896 155.815 100.954 156 100.002 156C99.0501 156 98.1077 155.815 97.2285 155.456C96.3493 155.097 95.5505 154.571 94.8779 153.908L79.4934 138.759C75.4378 134.765 72.676 129.675 71.5571 124.135C70.4383 118.594 71.0127 112.851 73.2076 107.632C75.4026 102.413 79.1196 97.952 83.8886 94.8136C88.6576 91.6751 94.2644 90 100 90C105.736 90 111.342 91.6751 116.111 94.8136C120.88 97.952 124.597 102.413 126.792 107.632C128.987 112.851 129.562 118.594 128.443 124.135C127.324 129.675 124.562 134.765 120.507 138.759Z" stroke="#9E9E9E" stroke-width="6" stroke-linecap="round" stroke-linejoin="round"/>
</svg>
