<svg width="32" height="32" viewBox="0 0 32 32" fill="none" xmlns="http://www.w3.org/2000/svg">
<path d="M12.0001 6.66669H9.33341C8.62617 6.66669 7.94789 6.94764 7.4478 7.44774C6.9477 7.94783 6.66675 8.62611 6.66675 9.33335V25.3334C6.66675 26.0406 6.9477 26.7189 7.4478 27.219C7.94789 27.7191 8.62617 28 9.33341 28H22.6667C23.374 28 24.0523 27.7191 24.5524 27.219C25.0525 26.7189 25.3334 26.0406 25.3334 25.3334V9.33335C25.3334 8.62611 25.0525 7.94783 24.5524 7.44774C24.0523 6.94764 23.374 6.66669 22.6667 6.66669H20.0001" stroke="black" stroke-opacity="0.87" stroke-width="2" stroke-linecap="round" stroke-linejoin="round"/>
<path d="M17.3333 4H14.6667C13.1939 4 12 5.19391 12 6.66667C12 8.13943 13.1939 9.33333 14.6667 9.33333H17.3333C18.8061 9.33333 20 8.13943 20 6.66667C20 5.19391 18.8061 4 17.3333 4Z" stroke="black" stroke-opacity="0.87" stroke-width="2" stroke-linecap="round" stroke-linejoin="round"/>
<path d="M12 16H12.0133" stroke="black" stroke-opacity="0.87" stroke-width="2" stroke-linecap="round" stroke-linejoin="round"/>
<path d="M17.3333 16H19.9999" stroke="black" stroke-opacity="0.87" stroke-width="2" stroke-linecap="round" stroke-linejoin="round"/>
<path d="M12 21.3333H12.0133" stroke="black" stroke-opacity="0.87" stroke-width="2" stroke-linecap="round" stroke-linejoin="round"/>
<path d="M17.3333 21.3333H19.9999" stroke="black" stroke-opacity="0.87" stroke-width="2" stroke-linecap="round" stroke-linejoin="round"/>
<path d="M12.0001 6.66669H9.33341C8.62617 6.66669 7.94789 6.94764 7.4478 7.44774C6.9477 7.94783 6.66675 8.62611 6.66675 9.33335V25.3334C6.66675 26.0406 6.9477 26.7189 7.4478 27.219C7.94789 27.7191 8.62617 28 9.33341 28H22.6667C23.374 28 24.0523 27.7191 24.5524 27.219C25.0525 26.7189 25.3334 26.0406 25.3334 25.3334V9.33335C25.3334 8.62611 25.0525 7.94783 24.5524 7.44774C24.0523 6.94764 23.374 6.66669 22.6667 6.66669H20.0001" stroke="black" stroke-opacity="0.87" stroke-width="2" stroke-linecap="round" stroke-linejoin="round"/>
<path d="M17.3333 4H14.6667C13.1939 4 12 5.19391 12 6.66667C12 8.13943 13.1939 9.33333 14.6667 9.33333H17.3333C18.8061 9.33333 20 8.13943 20 6.66667C20 5.19391 18.8061 4 17.3333 4Z" stroke="black" stroke-opacity="0.87" stroke-width="2" stroke-linecap="round" stroke-linejoin="round"/>
<rect width="14" height="16" transform="translate(9 11)" fill="white"/>
<path d="M18.4756 19.0947C18.4756 20.055 18.2591 20.7956 17.8262 21.3164C17.3965 21.8372 16.7894 22.0977 16.0049 22.0977C15.2139 22.0977 14.6019 21.8356 14.1689 21.3115C13.736 20.7874 13.5195 20.0485 13.5195 19.0947V17.7959C13.5195 16.8356 13.7344 16.0951 14.1641 15.5742C14.597 15.0534 15.2074 14.793 15.9951 14.793C16.7829 14.793 17.3932 15.055 17.8262 15.5791C18.2591 16.1032 18.4756 16.8438 18.4756 17.8008V19.0947ZM16.8301 17.5859C16.8301 17.0749 16.7633 16.694 16.6299 16.4434C16.4964 16.1895 16.2848 16.0625 15.9951 16.0625C15.7119 16.0625 15.5052 16.1797 15.375 16.4141C15.248 16.6484 15.1797 17.0033 15.1699 17.4785V19.2949C15.1699 19.8255 15.2367 20.2145 15.3701 20.4619C15.5036 20.7061 15.7152 20.8281 16.0049 20.8281C16.2848 20.8281 16.4915 20.7093 16.625 20.4717C16.7585 20.2308 16.8268 19.8548 16.8301 19.3438V17.5859Z" fill="#212121"/>
</svg>
