<svg width="80" height="80" viewBox="0 0 80 80" fill="none" xmlns="http://www.w3.org/2000/svg">
<path d="M74.8893 35.4423L63.1143 20.2332C62.6784 19.6707 61.8835 19.5319 61.2807 19.913L53.6783 24.7205H43.7631C43.6348 24.7205 43.5071 24.7477 43.3837 24.7834L35.6959 26.9838L27.7189 24.8144L19.9678 19.913C19.3752 19.5384 18.5948 19.6654 18.1541 20.2087L5.13012 36.2492C4.66208 36.8256 4.73937 37.6672 5.30402 38.1502L12.1303 43.9914L18.2545 52.1974C16.4634 54.0947 16.4983 57.087 18.3619 58.9405C19.1879 59.7614 20.2383 60.2251 21.3188 60.3329C21.2812 60.5763 21.2619 60.8234 21.2619 61.0742C21.2619 62.369 21.7691 63.5863 22.6896 64.5016C23.6106 65.4174 24.835 65.9217 26.1371 65.9217C26.1548 65.9217 26.172 65.9207 26.1892 65.9201C26.1886 65.9532 26.187 65.9858 26.187 66.0189C26.187 67.3136 26.6942 68.5309 27.6147 69.4467C28.5358 70.362 29.7601 70.8663 31.0622 70.8663C31.3193 70.8663 31.5737 70.8455 31.8233 70.8071C31.9291 71.8852 32.3966 72.9344 33.2253 73.7584C34.1753 74.7036 35.4238 75.1759 36.6722 75.1759C37.9207 75.1759 39.1692 74.7036 40.1197 73.7584L40.8653 73.0171L41.1782 73.2679C42.1207 74.1757 43.3445 74.6294 44.5682 74.6294C45.8167 74.6294 47.0652 74.1571 48.0152 73.2119C48.9851 72.2475 49.4601 70.9747 49.4402 69.7082C50.7134 69.7274 51.9941 69.2557 52.9639 68.2918C53.9328 67.328 54.4078 66.0562 54.389 64.7903C55.7153 64.8111 56.9734 64.3046 57.9122 63.3712C58.8821 62.4068 59.3571 61.134 59.3372 59.8676C60.6114 59.8868 61.891 59.415 62.8609 58.4506C64.5162 56.8047 64.7293 54.2606 63.5018 52.3826L67.9734 43.0708L74.6961 37.3187C75.2516 36.8432 75.3364 36.0192 74.8893 35.4423ZM19.5266 22.8851L25.1001 26.4091L12.9757 41.0961L8.11708 36.9382L19.5266 22.8851ZM20.3129 54.0247L21.9951 52.3522C22.046 52.3015 22.0997 52.2534 22.1545 52.2086C22.4835 51.9418 22.8818 51.7827 23.3036 51.7448C23.3154 51.7438 23.3278 51.7438 23.3396 51.7432C23.3997 51.7384 23.4598 51.7352 23.5205 51.7358C24.0969 51.7438 24.6326 51.9781 25.0298 52.3949C25.8091 53.2141 25.7673 54.5526 24.9364 55.3787L23.3052 57.0006C22.4803 57.8209 21.1379 57.8209 20.3129 57.0006C19.4879 56.1798 19.4879 54.845 20.3129 54.0247ZM24.6407 62.5616C24.2408 62.1646 24.0207 61.6362 24.0207 61.0742C24.0207 60.5123 24.2408 59.9839 24.6407 59.5863L27.9024 56.3431C28.5272 55.7219 29.5094 55.5516 30.3081 55.93C31.1315 56.3201 31.5947 57.2087 31.4739 58.1027C31.4095 58.5798 31.1862 59.0291 30.8438 59.3702L27.6335 62.5616C27.2337 62.9592 26.7023 63.178 26.1371 63.178C25.5719 63.178 25.0405 62.9592 24.6407 62.5616ZM29.5658 67.5062C29.1659 67.1092 28.9459 66.5808 28.9459 66.0189C28.9459 65.4569 29.1659 64.9285 29.5658 64.5309L32.827 61.2877C33.4953 60.6238 34.5671 60.4808 35.3851 60.9542C36.1323 61.3864 36.5236 62.235 36.3953 63.0804C36.325 63.5452 36.1028 63.9823 35.7684 64.3148L32.5587 67.5062C32.1588 67.9038 31.6274 68.1227 31.0622 68.1227C30.497 68.1227 29.9657 67.9038 29.5658 67.5062ZM35.1758 71.8184C34.3508 70.9982 34.3508 69.6634 35.1758 68.8431L36.858 67.1706C36.9089 67.1199 36.9621 67.0724 37.0168 67.0275C37.0184 67.0265 37.0195 67.0254 37.0206 67.0243C37.2943 66.8034 37.6158 66.6555 37.9588 66.591C37.9669 66.5899 37.9749 66.5888 37.983 66.5878C38.042 66.5771 38.1021 66.5686 38.1622 66.5632C38.1864 66.5611 38.2105 66.5611 38.2352 66.5595C38.2846 66.5568 38.3335 66.5536 38.3834 66.5541C38.9593 66.5621 39.4955 66.7959 39.8927 67.2132C39.9415 67.2645 39.9872 67.3178 40.029 67.3728C40.6634 68.1974 40.5781 69.4222 39.7907 70.2056L38.1681 71.819C37.3432 72.6393 36.0008 72.6387 35.1758 71.8184ZM60.9099 56.5107C60.0849 57.3315 58.7425 57.3309 57.9175 56.5107C57.8875 56.4808 57.8558 56.453 57.8236 56.4269L48.9534 47.5143C48.4172 46.9758 47.5439 46.9715 47.0024 47.5047C46.4608 48.0373 46.4565 48.9056 46.9922 49.4441L55.9584 58.4522C55.9595 58.4533 55.9606 58.4544 55.9616 58.4554C56.7866 59.2757 56.7866 60.611 55.9616 61.4313C55.5618 61.8289 55.0304 62.0477 54.4652 62.0477C53.8995 62.0477 53.3681 61.8289 52.9688 61.4313L46.9707 55.4054C46.435 54.8669 45.5617 54.8626 45.0202 55.3953C44.4786 55.9284 44.4743 56.7967 45.01 57.3352L50.9163 63.2688C50.9463 63.3061 50.9785 63.3419 51.0129 63.376C51.8379 64.1963 51.8379 65.5316 51.0129 66.3519C50.1874 67.1722 48.8445 67.1716 48.0195 66.3513L44.7459 63.0622C44.2097 62.5237 43.3364 62.5189 42.7948 63.0521C42.2533 63.5847 42.249 64.453 42.7846 64.9915L45.967 68.1883C45.997 68.2257 46.0293 68.2619 46.0641 68.2961C46.8891 69.1164 46.8891 70.4517 46.0641 71.2719C45.2392 72.0928 43.8968 72.0922 43.0718 71.2719C42.9768 71.1775 42.8652 71.1049 42.7589 71.0238C42.6687 70.9555 42.6451 70.908 42.6902 70.7991C42.7358 70.6886 42.804 70.5888 42.8496 70.4778C42.9001 70.354 42.9408 70.2264 42.9806 70.0984C43.192 69.4206 43.2543 68.6916 43.1593 67.9882C42.9768 66.6385 42.2302 65.4206 41.0987 64.6499C40.4874 64.2342 39.78 63.9615 39.0468 63.859C39.4021 62.3006 38.9754 60.611 37.8654 59.4449C36.9519 58.4853 35.7179 57.9468 34.3906 57.9287C34.3422 57.9281 34.2939 57.9281 34.2451 57.9287C34.2746 56.6692 33.8141 55.4177 32.9408 54.5003C32.0267 53.5407 30.7928 53.0022 29.466 52.9841C29.0715 52.9787 28.6732 53.0203 28.2889 53.1084C28.1246 51.9722 27.5487 50.9208 26.6765 50.1688C25.8097 49.4228 24.7196 49.0086 23.5586 48.9926C22.3364 48.975 21.1357 49.4233 20.2281 50.2382L14.8956 43.0937L27.6528 27.6403L31.7187 28.7461L26.4087 38.0627C25.7667 39.1893 25.6046 40.4968 25.9519 41.7446C26.2992 42.9929 27.114 44.0314 28.247 44.6697C28.3179 44.7098 28.3893 44.7476 28.4617 44.7839C28.4671 44.7866 28.4724 44.7893 28.4784 44.7919C28.6689 44.8864 28.8648 44.9675 29.0634 45.0358C29.9882 45.3544 30.9871 45.3891 31.9505 45.1244C33.2054 44.7791 34.2499 43.9685 34.8919 42.8424L38.3426 36.7877L44.5038 37.2221L60.9104 53.5348C61.7348 54.3556 61.7348 55.6904 60.9099 56.5107ZM61.4815 50.2233L46.0904 34.9203C46.0615 34.891 46.0309 34.8632 45.9992 34.8371C45.7775 34.6535 45.5027 34.5425 45.2129 34.5222L37.669 33.9901C37.1473 33.9543 36.6288 34.2303 36.3711 34.6823L32.4916 41.49C32.213 41.9789 31.7595 42.3306 31.2147 42.4805C30.6704 42.6305 30.0993 42.5601 29.6071 42.2831C29.1155 42.0061 28.7618 41.5551 28.6109 41.0134C28.4601 40.4717 28.5304 39.9039 28.8095 39.415L33.9885 30.3269L36.0872 29.7265C36.1011 29.7222 36.1146 29.7169 36.1285 29.7126L43.9612 27.4636H53.425L65.2397 42.3973L61.4815 50.2233ZM67.047 40.2444L56.1211 26.4267L61.6973 22.9006L71.9066 36.0864L67.047 40.2444Z" fill="#9E9E9E"/>
<path d="M48.4663 18.9111C48.8679 18.9111 49.2695 18.7579 49.5759 18.4515L60.2913 7.73621C60.9041 7.12341 60.9041 6.13037 60.2913 5.51758C59.6785 4.90479 58.6854 4.90479 58.0726 5.51758L47.3573 16.2329C46.7445 16.8457 46.7445 17.8387 47.3573 18.4515C47.6637 18.7579 48.0653 18.9111 48.4663 18.9111Z" fill="#FFC200"/>
<path d="M30.4238 18.4515C30.7302 18.7579 31.1318 18.9111 31.5334 18.9111C31.9344 18.9111 32.3361 18.7579 32.6425 18.4515C33.2553 17.8387 33.2553 16.8457 32.6425 16.2329L21.9271 5.51758C21.3143 4.90479 20.3213 4.90479 19.7085 5.51758C19.0957 6.13037 19.0957 7.12341 19.7085 7.73621L30.4238 18.4515Z" fill="#FFC200"/>
<path d="M40.0002 18.911C40.8663 18.911 41.5688 18.2084 41.5688 17.3423V8.47455C41.5688 7.60846 40.8663 6.90594 40.0002 6.90594C39.1342 6.90594 38.4316 7.60846 38.4316 8.47455V17.3423C38.4316 18.2084 39.1342 18.911 40.0002 18.911Z" fill="#FFC200"/>
<path d="M38.5527 2.78935C38.8017 3.39299 39.4224 3.78911 40.0773 3.75493C40.7243 3.72136 41.2925 3.28435 41.4927 2.6685C41.6935 2.04778 41.475 1.34038 40.955 0.944872C40.4246 0.540819 39.6849 0.518236 39.1301 0.885057C38.5112 1.29399 38.2713 2.1082 38.5527 2.78935Z" fill="#FFC200"/>
</svg>
