<svg width="199" height="199" viewBox="0 0 199 199" fill="none" xmlns="http://www.w3.org/2000/svg">
<path d="M149.25 74.625C162.988 74.625 174.125 63.4881 174.125 49.75C174.125 36.0119 162.988 24.875 149.25 24.875C135.512 24.875 124.375 36.0119 124.375 49.75C124.375 63.4881 135.512 74.625 149.25 74.625Z" stroke="#9E9E9E" stroke-width="6" stroke-linecap="round" stroke-linejoin="round"/>
<path d="M149.25 174.125C162.988 174.125 174.125 162.988 174.125 149.25C174.125 135.512 162.988 124.375 149.25 124.375C135.512 124.375 124.375 135.512 124.375 149.25C124.375 162.988 135.512 174.125 149.25 174.125Z" stroke="#9E9E9E" stroke-width="6" stroke-linecap="round" stroke-linejoin="round"/>
<path d="M72.1375 88.7212L126.863 60.5295" stroke="#9E9E9E" stroke-width="6" stroke-linecap="round" stroke-linejoin="round"/>
<path d="M72.1375 110.28L126.863 138.471" stroke="#9E9E9E" stroke-width="6" stroke-linecap="round" stroke-linejoin="round"/>
<path d="M49.75 124.375C63.4881 124.375 74.625 113.238 74.625 99.5C74.625 85.7619 63.4881 74.625 49.75 74.625C36.0119 74.625 24.875 85.7619 24.875 99.5C24.875 113.238 36.0119 124.375 49.75 124.375Z" stroke="#FFCC00" stroke-width="6" stroke-linecap="round" stroke-linejoin="round"/>
</svg>
