<svg width="44" height="44" viewBox="0 0 44 44" fill="none" xmlns="http://www.w3.org/2000/svg">
<g clip-path="url(#clip0)">
<path d="M22.0008 43.9996C34.1509 43.9996 44.0006 34.15 44.0006 21.9998C44.0006 9.84965 34.1509 0 22.0008 0C9.85063 0 0.000976562 9.84965 0.000976562 21.9998C0.000976562 34.15 9.85063 43.9996 22.0008 43.9996Z" fill="#55ACEE"/>
<path d="M35.4762 15.8107C34.5335 16.2288 33.5193 16.5115 32.4558 16.6378C33.5417 15.9872 34.375 14.9578 34.7684 13.7291C33.7523 14.3319 32.6264 14.7691 31.4291 15.0048C30.4698 13.9832 29.1031 13.3448 27.5898 13.3448C24.6862 13.3448 22.3312 15.6998 22.3312 18.6034C22.3312 19.0155 22.3779 19.4167 22.4681 19.8018C18.0977 19.5826 14.2227 17.4892 11.6289 14.3068C11.1764 15.0833 10.9168 15.9872 10.9168 16.9508C10.9168 18.7747 11.8458 20.385 13.256 21.3277C12.3944 21.3007 11.5831 21.0642 10.8744 20.6693C10.874 20.6917 10.874 20.714 10.874 20.736C10.874 23.2839 12.6874 25.409 15.0926 25.8918C14.6518 26.0126 14.1863 26.0765 13.7074 26.0765C13.3678 26.0765 13.0388 26.0439 12.718 25.9828C13.387 28.0715 15.3286 29.5919 17.6303 29.6346C15.8302 31.0453 13.5631 31.8857 11.0987 31.8857C10.6752 31.8857 10.2556 31.861 9.84497 31.8119C12.1709 33.3045 14.9357 34.1748 17.9052 34.1748C27.5776 34.1748 32.8672 26.162 32.8672 19.2124C32.8672 18.9845 32.8621 18.7575 32.8519 18.5324C33.8801 17.7912 34.7715 16.8653 35.4762 15.8107Z" fill="white"/>
</g>
<defs>
<clipPath id="clip0">
<rect width="44" height="44" fill="white"/>
</clipPath>
</defs>
</svg>
